<?xml version="1.0" standalone="no"?><!DOCTYPE svg PUBLIC "-//W3C//DTD SVG 1.1//EN" "http://www.w3.org/Graphics/SVG/1.1/DTD/svg11.dtd"><svg t="1748761639435" class="icon" viewBox="0 0 1024 1024" version="1.1" xmlns="http://www.w3.org/2000/svg" p-id="10237" data-spm-anchor-id="a313x.search_index.0.i24.47243a81cHRBiT" xmlns:xlink="http://www.w3.org/1999/xlink" width="256" height="256"><path d="M260.022857 0h382.434286c27.485714 1.588571 53.874286 16.251429 69.28 39.12 11.6 16.777143 17.085714 37.6 15.405714 57.92-1.462857 19.531429-9.645714 38.457143-22.811428 52.96-13.908571 15.542857-33.405714 26-54.08 28.834286-7.92 1.165714-15.942857 0.868571-23.908572 0.902857-120.4 0-240.8-0.011429-361.2 0-14.777143 0.091429-29.588571-3.382857-42.64-10.331429-17.245714-9.04-31.36-23.851429-39.588571-41.485714-9.474286-20.091429-11.017143-43.737143-4.342857-64.914286 5.737143-18.525714 17.76-35.005714 33.542857-46.262857C226.045714 6.674286 242.914286 1.028571 260.022857 0z" p-id="10238" data-spm-anchor-id="a313x.search_index.0.i19.47243a81cHRBiT" class="" fill="#42909d"></path><path d="M34.08 76.422857c12.502857-13.702857 30.742857-21.931429 49.302857-22.125714 19.497143-0.125714 38.994286 0 58.502857-0.057143-0.605714 9.36-0.422857 18.742857-0.434285 28.114286 0.057143 12.217143-0.491429 24.537143 1.714285 36.617143 4.971429 30.205714 21.805714 58.182857 46.022857 76.88 21.462857 16.811429 48.651429 26.068571 75.908572 25.931428 123.828571 0.011429 247.645714 0.011429 371.462857 0 21.222857 0.125714 42.422857-5.36 60.914286-15.76 31.748571-17.691429 54.891429-50 61.074285-85.851428 2.548571-13.234286 1.817143-26.754286 1.92-40.148572-0.022857-8.594286 0.16-17.2-0.457142-25.782857 19.428571 0.034286 38.868571-0.045714 58.297142 0.045714 19.131429 0.137143 37.942857 8.822857 50.525715 23.222857 11.154286 12.502857 17.245714 29.211429 17.142857 45.942858 0 141.931429 0.022857 283.862857-0.011429 425.794285-67.405714-28.422857-146.457143-27.702857-213.2 2.308572-66.742857 29.405714-120.251429 87.2-144.331428 156.068571-15.097143 42.571429-19.062857 88.982857-11.748572 133.542857 6.308571 38.422857 21.097143 75.428571 43.108572 107.554286 20.457143 29.988571 47.04 55.76 77.645714 75.28H80.64c-10.342857-0.834286-20.594286-3.588571-29.622857-8.754286-16.88-9.371429-29.405714-26.182857-33.451429-45.062857C15.657143 961.977143 15.92 953.497143 15.931429 945.142857 15.942857 671.234286 15.908571 397.325714 15.942857 123.417143 15.782857 106.194286 22.354286 89.04 34.08 76.422857m183.577143 293.44c-9.908571 2.194286-18.331429 10.057143-21.062857 19.851429-2.8 9.234286-0.422857 19.828571 6.068571 26.982857 5.337143 6.045714 13.302857 9.622857 21.371429 9.577143 149.714286 0.034286 299.417143-0.011429 449.131428 0.022857 5.714286 0.08 11.657143 0.114286 16.96-2.342857 10.685714-4.445714 17.954286-15.874286 17.257143-27.451429-0.217143-14.8-13.68-27.645714-28.445714-27.337143-151.268571-0.057143-302.537143 0-453.794286-0.022857-2.514286 0.022857-5.04 0.171429-7.485714 0.72m-0.011429 146.297143c-9.885714 2.182857-18.308571 10.022857-21.04 19.794286-2.902857 9.531429-0.285714 20.491429 6.64 27.645714 5.542857 5.977143 13.725714 9.222857 21.851429 8.982857 78.102857-0.045714 156.217143 0.034286 234.32-0.034286 11.097143 0.022857 21.737143-7.142857 25.965714-17.371428 4.068571-9.36 2.571429-20.857143-3.84-28.822857-5.462857-7.051429-14.354286-11.165714-23.257143-10.925715-77.714286-0.011429-155.428571 0.011429-233.142857 0-2.514286 0.022857-5.04 0.171429-7.497143 0.731429m0.022857 146.274286c-9.92 2.182857-18.342857 10.045714-21.074285 19.851428-2.971429 9.76-0.114286 20.994286 7.165714 28.148572 5.542857 5.657143 13.497143 8.674286 21.382857 8.434285 58.297143-0.034286 116.582857 0.011429 174.868572-0.022857 9.977143 0.091429 19.691429-5.531429 24.662857-14.16 5.474286-9.165714 5.12-21.428571-0.902857-30.251428-5.188571-7.851429-14.422857-12.8-23.84-12.708572-58.297143-0.034286-116.582857 0.011429-174.868572-0.011428-2.48 0.022857-4.971429 0.182857-7.394286 0.72m-0.011428 146.285714c-9.92 2.194286-18.354286 10.068571-21.074286 19.874286-2.96 9.76-0.091429 20.994286 7.2 28.137143 5.531429 5.634286 13.451429 8.651429 21.325714 8.422857 58.297143-0.034286 116.605714 0.011429 174.902858-0.022857 9.977143 0.08 19.691429-5.531429 24.662857-14.16 5.462857-9.154286 5.12-21.394286-0.88-30.205715-5.165714-7.851429-14.365714-12.811429-23.771429-12.742857-58.285714-0.057143-116.571429 0-174.857143-0.034286-2.514286 0.022857-5.051429 0.182857-7.508571 0.731429z" p-id="10239" data-spm-anchor-id="a313x.search_index.0.i18.47243a81cHRBiT" class="" fill="#42909d"></path><path d="M774.228571 573.268571c39.622857-1.817143 79.714286 7.062857 114.765715 25.691429 30.331429 16.08 56.937143 39.177143 77.04 67.017143 20.091429 27.714286 33.702857 60.102857 39.337143 93.874286 6.845714 40.662857 2.365714 83.211429-13.154286 121.428571-15.817143 39.291429-43.108571 73.817143-77.554286 98.445714-43.908571 31.68-99.565714 46.32-153.394286 40.64-36.765714-3.691429-72.502857-16.765714-103.028571-37.577143-28.514286-19.428571-52.582857-45.428571-69.428571-75.565714-23.097143-40.537143-32.628571-88.48-27.44-134.788571 4.011429-37.051429 17.6-72.948571 38.96-103.462857 25.508571-36.594286 62.171429-65.337143 103.874285-81.211429 22.354286-8.56 46.102857-13.451429 70.022857-14.491429m31.771429 79.474286c-15.588571 7.645714-26.274286 22.022857-36.125714 35.817143-12.068571 17.965714-22.057143 37.245714-31.577143 56.662857-14.697143 28.708571-26.605714 58.937143-34.297143 90.297143-7.611429 32.525714-12.08 66.194286-8.64 99.588571 3.84-11.142857 6.788571-22.56 10.754286-33.657142 8.228571-22.994286 17.405714-45.68 28.445714-67.485715 18.034286-37.657143 40.88-72.925714 67.405714-105.142857 12.262857-16.891429 25.885714-33.097143 34.605715-52.228571 2.068571-4.857143 4.011429-10.24 2.765714-15.554286-1.142857-4.731429-5.531429-7.577143-9.714286-9.371429-7.485714-3.394286-16.422857-2.742857-23.622857 1.074286m-94.994286 49.131429c-8.56 7.862857-13.44 18.777143-17.074285 29.611428-11.005714 33.851429-15.371429 69.611429-15.348572 105.12 0.697143 18.971429 0.674286 38.365714 6.297143 56.674286 0.285714-34.422857 6.651429-68.594286 17.371429-101.245714 6.845714-20.685714 13.931429-41.337143 22.8-61.245715 3.04-7.805714 6.811429-15.36 9.062857-23.44 0.788571-2.937143 1.142857-6.948571-1.942857-8.685714-6.697143-3.862857-15.691429-1.977143-21.165715 3.211429m89.862857 54.434285c-8.285714 8.125714-16.308571 16.617143-23.131428 26.034286-14.571429 20.605714-27.817143 42.32-36.914286 65.931429-7.451429 19.165714-13.782857 39.565714-12.114286 60.388571 0.742857 9.931429 5.76 19.485714 13.851429 25.382857 11.36 8.788571 26.205714 11.931429 40.331429 11.851429 11.565714 0.64 23.017143-2.102857 33.954285-5.6 16.445714-5.725714 32.365714-13.771429 45.302857-25.577143 7.302857-6.091429 13.92-13.131429 18.697143-21.405714 8.605714-13.097143 12.205714-29.977143 7.931429-45.222857-3.12-9.2-10.72-16.594286-19.748572-20.022858-9.005714-3.451429-18.845714-4.822857-28.445714-3.782857-21.988571 1.714286-43.314286 10.605714-60.331428 24.582857-12.171429 10.674286-22.114286 25.245714-23.68 41.68 1.794286-4.16 4.034286-8.137143 7.017142-11.565714 11.954286-13.622857 28.342857-22.834286 45.657143-27.805714 8.925714-2.411429 18.377143-4.114286 27.577143-2.308572 6.091429 1.165714 12.217143 4.594286 14.777143 10.491429 3.497143 8.011429 1.542857 17.44-3.062857 24.594286-8.228571 13.005714-20.902857 22.594286-34.457143 29.542857-14.731429 7.622857-31.622857 10.8-48.125714 9.622857-8.297143-0.868571-17.782857-2.674286-22.902857-9.965714-5.04-7.76-4.045714-17.782857-1.497143-26.228572 6.057143-19.188571 17.474286-36.08 29.291428-52.148571 11.005714-14.262857 22.777143-28.125714 36.685715-39.668572 7.382857-7.108571 14.742857-14.308571 21.382857-22.137142 3.531429-4.582857 7.177143-9.417143 8.571428-15.131429 1.885714-7.828571-5.634286-15.851429-13.531428-14.845714-9.12 1.142857-16.514286 7.348571-23.085715 13.314285z" p-id="10240" data-spm-anchor-id="a313x.search_index.0.i21.47243a81cHRBiT" class="" fill="#e8c298"></path></svg>